<svg width="170" height="67" viewBox="0 0 170 67" fill="none" xmlns="http://www.w3.org/2000/svg">
<path d="M1.41404 44.1528C1.36018 38.6648 5.76548 34.1722 11.2535 34.1183L157.497 32.6833C162.985 32.6294 167.477 37.0347 167.531 42.5228L167.739 63.7092L1.62194 65.3393L1.41404 44.1528Z" fill="#D95D5D" stroke="#D95D5D" stroke-width="2.625"/>
<path d="M68.9202 34.8203C68.9202 34.8203 40.6045 33.3143 40.6586 21.0345C40.6964 12.4562 46.7298 7.53765 54.5548 4.02232C67.9966 -2.0163 79.4478 8.91333 88.4688 20.5653C92.2275 25.4203 95.6377 34.5582 95.6377 34.5582" stroke="#D95D5D" stroke-width="3.75"/>
<path d="M98.4496 34.5305C98.4496 34.5305 126.73 32.4691 126.435 20.1927C126.229 11.6168 120.1 6.81761 112.208 3.45651C98.6502 -2.31716 87.4156 8.83507 78.6251 20.6619C74.9624 25.5897 71.7322 34.7927 71.7322 34.7927" stroke="#D95D5D" stroke-width="3.75"/>
</svg>
